<svg xmlns="http://www.w3.org/2000/svg" width="264" height="176" viewBox="0 0 132 88" fill="none" role="img" aria-label="No transport legs yet">
  <ellipse cx="66" cy="78" rx="44" ry="6" fill="#efeaf7"></ellipse>
  <path d="M22 50h88" stroke="#b8a4e0" stroke-width="3.5" stroke-linecap="round" stroke-dasharray="2 9"></path>
  <path d="M14 44a8 8 0 0 1 16 0c0 6-8 14-8 14S14 50 14 44Z" fill="#a8ddc9" stroke="#4a3d63" stroke-width="3"></path>
  <path d="M102 44a8 8 0 0 1 16 0c0 6-8 14-8 14s-8-8-8-14Z" fill="#a8ddc9" stroke="#4a3d63" stroke-width="3"></path>
  <path d="M52 34 84 20 74 34l10 14-32-14Z" fill="#f6c6a4" stroke="#4a3d63" stroke-width="3" stroke-linejoin="round"></path>
  <path d="M40 22c0-4 5-4 5-8" stroke="#b8a4e0" stroke-width="3" stroke-linecap="round"></path>
</svg>